<svg width="24" height="24" viewBox="0 0 24 24" fill="none" xmlns="http://www.w3.org/2000/svg">
<path opacity="0.2" d="M14.292 17.593C14.3051 17.593 14.3181 17.5933 14.3311 17.594H17.361C17.9908 17.594 18.501 17.0838 18.501 16.454C18.501 16.1231 18.3692 15.8048 18.1347 15.5703L17.4937 14.9293C16.9782 14.4138 16.688 13.7141 16.688 12.985V10.188C16.688 8.10009 14.9957 6.40698 12.907 6.40698H11.094C9.00611 6.40698 7.313 8.0993 7.313 10.188V12.985C7.313 13.7141 7.02282 14.4138 6.50733 14.9293L5.86633 15.5703C5.63182 15.8048 5.5 16.1231 5.5 16.454C5.5 17.0838 6.01021 17.594 6.64 17.594H9.708H14.2529C14.2659 17.5933 14.2789 17.593 14.292 17.593Z" fill="#6E757C"/>
<path fill-rule="evenodd" clip-rule="evenodd" d="M14.292 17.593C14.3051 17.593 14.3181 17.5933 14.3311 17.594C14.7271 17.6143 15.042 17.9419 15.042 18.343V18.708C15.042 20.3882 13.6802 21.75 12 21.75C10.32 21.75 8.958 20.3884 8.958 18.709V18.344C8.958 17.9298 9.29379 17.594 9.708 17.594C10.1222 17.594 10.458 17.9298 10.458 18.344V18.709C10.458 19.5596 11.148 20.25 12 20.25C12.8518 20.25 13.542 19.5598 13.542 18.708V18.343C13.542 17.9419 13.8569 17.6143 14.2529 17.594C14.2659 17.5933 14.2789 17.593 14.292 17.593Z" fill="#6E757C"/>
<path fill-rule="evenodd" clip-rule="evenodd" d="M9.417 4.833C9.417 3.40705 10.5725 2.25 12 2.25C13.4275 2.25 14.583 3.40705 14.583 4.833V5.751C14.583 6.16521 14.2472 6.501 13.833 6.501C13.4188 6.501 13.083 6.16521 13.083 5.751V4.833C13.083 4.23495 12.5985 3.75 12 3.75C11.4015 3.75 10.917 4.23495 10.917 4.833V5.751C10.917 6.16521 10.5812 6.501 10.167 6.501C9.75279 6.501 9.417 6.16521 9.417 5.751V4.833Z" fill="#6E757C"/>
<path fill-rule="evenodd" clip-rule="evenodd" d="M11.094 6.407C9.00611 6.407 7.313 8.09932 7.313 10.188V12.985C7.313 13.7141 7.02282 14.4138 6.50733 14.9293L5.86633 15.5703C5.63182 15.8048 5.5 16.1231 5.5 16.454C5.5 17.0838 6.01021 17.594 6.64 17.594H14.2529H14.3311H17.361C17.9908 17.594 18.501 17.0838 18.501 16.454C18.501 16.1231 18.3692 15.8048 18.1347 15.5703L17.4937 14.9293C16.9782 14.4138 16.688 13.7141 16.688 12.985V10.188C16.688 8.10011 14.9957 6.407 12.907 6.407H11.094ZM18.188 10.188C18.188 7.27189 15.8243 4.907 12.907 4.907H11.094C8.17789 4.907 5.813 7.27068 5.813 10.188V12.985C5.813 13.3159 5.68118 13.6342 5.44667 13.8687L4.80567 14.5097C4.29018 15.0252 4 15.7249 4 16.454C4 17.9122 5.18179 19.094 6.64 19.094H17.361C18.8192 19.094 20.001 17.9122 20.001 16.454C20.001 15.7249 19.7108 15.0252 19.1953 14.5097L18.5543 13.8687C18.3198 13.6342 18.188 13.3159 18.188 12.985V10.188Z" fill="#6E757C"/>
</svg>
